<?xml version="1.0" standalone="no"?>
<!DOCTYPE svg PUBLIC "-//W3C//DTD SVG 1.1//EN" "http://www.w3.org/Graphics/SVG/1.1/DTD/svg11.dtd">
<svg width="50mm" height="50mm" viewBox="-25 -25 50 50" xmlns="http://www.w3.org/2000/svg" version="1.1">
<title>OpenSCAD Model</title>
<path d="
M 1.56975,24.9507 L 3.13332,24.8029 L 4.68452,24.5572 L 6.21724,24.2146 L 7.72542,23.7764 L 9.20311,23.2444
 L 10.6445,22.6207 L 12.0438,21.9077 L 13.3957,21.1082 L 14.6946,20.2254 L 15.9356,19.2628 L 17.1137,18.2242
 L 18.2242,17.1137 L 19.2628,15.9356 L 20.2254,14.6946 L 21.1082,13.3957 L 21.9077,12.0438 L 22.6207,10.6445
 L 23.2444,9.20311 L 23.7764,7.72542 L 24.2146,6.21724 L 24.5572,4.68452 L 24.8029,3.13332 L 24.9507,1.56975
 L 25,-0 L 24.9507,-1.56975 L 24.8029,-3.13332 L 24.5572,-4.68452 L 24.2146,-6.21724 L 23.7764,-7.72542
 L 23.2444,-9.20311 L 22.6207,-10.6445 L 21.9077,-12.0438 L 21.1082,-13.3957 L 20.2254,-14.6946 L 19.2628,-15.9356
 L 18.2242,-17.1137 L 17.1137,-18.2242 L 15.9356,-19.2628 L 14.6946,-20.2254 L 13.3957,-21.1082 L 12.0438,-21.9077
 L 10.6445,-22.6207 L 9.20311,-23.2444 L 7.72542,-23.7764 L 6.21724,-24.2146 L 4.68452,-24.5572 L 3.13332,-24.8029
 L 1.56975,-24.9507 L 0,-25 L -1.56975,-24.9507 L -3.13332,-24.8029 L -4.68452,-24.5572 L -6.21724,-24.2146
 L -7.72542,-23.7764 L -9.20311,-23.2444 L -10.6445,-22.6207 L -12.0438,-21.9077 L -13.3957,-21.1082 L -14.6946,-20.2254
 L -15.9356,-19.2628 L -17.1137,-18.2242 L -18.2242,-17.1137 L -19.2628,-15.9356 L -20.2254,-14.6946 L -21.1082,-13.3957
 L -21.9077,-12.0438 L -22.6207,-10.6445 L -23.2444,-9.20311 L -23.7764,-7.72542 L -24.2146,-6.21724 L -24.5572,-4.68452
 L -24.8029,-3.13332 L -24.9507,-1.56975 L -25,-0 L -24.9507,1.56975 L -24.8029,3.13332 L -24.5572,4.68452
 L -24.2146,6.21724 L -23.7764,7.72542 L -23.2444,9.20311 L -22.6207,10.6445 L -21.9077,12.0438 L -21.1082,13.3957
 L -20.2254,14.6946 L -19.2628,15.9356 L -18.2242,17.1137 L -17.1137,18.2242 L -15.9356,19.2628 L -14.6946,20.2254
 L -13.3957,21.1082 L -12.0438,21.9077 L -10.6445,22.6207 L -9.20311,23.2444 L -7.72542,23.7764 L -6.21724,24.2146
 L -4.68452,24.5572 L -3.13332,24.8029 L -1.56975,24.9507 L 0,25 z
M 7.67555,-14.0797 L 7.62234,-14.2274 L 7.57854,-14.3783 L 7.54428,-14.5315 L 7.5197,-14.6867 L 7.50493,-14.843
 L 7.5,-15 L 7.50493,-15.157 L 7.5197,-15.3133 L 7.54428,-15.4684 L 7.57854,-15.6217 L 7.62234,-15.7725
 L 7.67555,-15.9203 L 7.73793,-16.0644 L 7.80922,-16.2044 L 7.88918,-16.3396 L 7.97745,-16.4695 L 8.07372,-16.5936
 L 8.17757,-16.7114 L 8.28862,-16.8224 L 8.40643,-16.9263 L 8.53053,-17.0225 L 8.66043,-17.1108 L 8.79561,-17.1908
 L 8.93555,-17.2621 L 9.07968,-17.3244 L 9.22745,-17.3776 L 9.37827,-17.4214 L 9.53154,-17.4557 L 9.68666,-17.4803
 L 9.84302,-17.4951 L 10,-17.5 L 10.157,-17.4951 L 10.3133,-17.4803 L 10.4684,-17.4557 L 10.6217,-17.4214
 L 10.7725,-17.3776 L 10.9203,-17.3244 L 11.0644,-17.2621 L 11.2044,-17.1908 L 11.3396,-17.1108 L 11.4695,-17.0225
 L 11.5936,-16.9263 L 11.7114,-16.8224 L 11.8224,-16.7114 L 11.9263,-16.5936 L 12.0225,-16.4695 L 12.1108,-16.3396
 L 12.1908,-16.2044 L 12.2621,-16.0644 L 12.3244,-15.9203 L 12.3776,-15.7725 L 12.4214,-15.6217 L 12.4557,-15.4684
 L 12.4803,-15.3133 L 12.4951,-15.157 L 12.5,-15 L 12.4951,-14.843 L 12.4803,-14.6867 L 12.4557,-14.5315
 L 12.4214,-14.3783 L 12.3776,-14.2274 L 12.3244,-14.0797 L 12.2621,-13.9355 L 12.1908,-13.7956 L 12.1108,-13.6604
 L 12.0225,-13.5305 L 11.9263,-13.4064 L 11.8224,-13.2886 L 11.7114,-13.1776 L 11.5936,-13.0737 L 11.4695,-12.9774
 L 11.3396,-12.8892 L 11.2044,-12.8092 L 11.0644,-12.7379 L 10.9203,-12.6756 L 10.7725,-12.6223 L 10.6217,-12.5785
 L 10.4684,-12.5443 L 10.3133,-12.5197 L 10.157,-12.5049 L 10,-12.5 L 9.84302,-12.5049 L 9.68666,-12.5197
 L 9.53154,-12.5443 L 9.37827,-12.5785 L 9.22745,-12.6223 L 9.07968,-12.6756 L 8.93555,-12.7379 L 8.79561,-12.8092
 L 8.66043,-12.8892 L 8.53053,-12.9774 L 8.40643,-13.0737 L 8.28862,-13.1776 L 8.17757,-13.2886 L 8.07372,-13.4064
 L 7.97745,-13.5305 L 7.88918,-13.6604 L 7.80922,-13.7956 L 7.73793,-13.9355 z
M -21.0816,1.29742 L -21.1629,1.28973 L -21.2436,1.27696 L -21.3233,1.25916 L -21.4017,1.23636 L -21.4786,1.20869
 L -21.5535,1.17627 L -21.6263,1.13919 L -21.6966,1.09763 L -21.7641,1.05171 L -21.8286,1.00166 L -21.8899,0.947647
 L -21.9476,0.889908 L -22.0017,0.828644 L -22.0517,0.764114 L -22.0976,0.696564 L -22.1392,0.626266 L -22.1763,0.553513
 L -22.2087,0.478561 L -22.2364,0.401718 L -22.2592,0.323288 L -22.277,0.243591 L -22.2897,0.162918 L -22.2974,0.0816193
 L -22.3,-0 L -22.2974,-0.0816193 L -22.2897,-0.162918 L -22.277,-0.243591 L -22.2592,-0.323288 L -22.2364,-0.401718
 L -22.2087,-0.478561 L -22.1763,-0.553513 L -22.1392,-0.626266 L -22.0976,-0.696564 L -22.0517,-0.764114 L -22.0017,-0.828644
 L -21.9476,-0.889908 L -21.8899,-0.947647 L -21.8286,-1.00166 L -21.7641,-1.05171 L -21.6966,-1.09763 L -21.6263,-1.13919
 L -21.5535,-1.17627 L -21.4786,-1.20869 L -21.4017,-1.23636 L -21.3233,-1.25916 L -21.2436,-1.27696 L -21.1629,-1.28973
 L -21.0816,-1.29742 L -21,-1.29999 L -20.9184,-1.29742 L -20.8371,-1.28973 L -20.7564,-1.27696 L -20.6767,-1.25916
 L -20.5983,-1.23636 L -20.5214,-1.20869 L -20.4465,-1.17627 L -20.3737,-1.13919 L -20.3034,-1.09763 L -20.2359,-1.05171
 L -20.1713,-1.00166 L -20.1101,-0.947647 L -20.0523,-0.889908 L -19.9983,-0.828644 L -19.9483,-0.764114 L -19.9024,-0.696564
 L -19.8608,-0.626266 L -19.8237,-0.553513 L -19.7913,-0.478561 L -19.7636,-0.401718 L -19.7408,-0.323288 L -19.723,-0.243591
 L -19.7103,-0.162918 L -19.7026,-0.0816193 L -19.7,-0 L -19.7026,0.0816193 L -19.7103,0.162918 L -19.723,0.243591
 L -19.7408,0.323288 L -19.7636,0.401718 L -19.7913,0.478561 L -19.8237,0.553513 L -19.8608,0.626266 L -19.9024,0.696564
 L -19.9483,0.764114 L -19.9983,0.828644 L -20.0523,0.889908 L -20.1101,0.947647 L -20.1713,1.00166 L -20.2359,1.05171
 L -20.3034,1.09763 L -20.3737,1.13919 L -20.4465,1.17627 L -20.5214,1.20869 L -20.5983,1.23636 L -20.6767,1.25916
 L -20.7564,1.27696 L -20.8371,1.28973 L -20.9184,1.29742 L -21,1.29999 z
M 20.9184,1.29742 L 20.8371,1.28973 L 20.7564,1.27696 L 20.6767,1.25916 L 20.5983,1.23636 L 20.5214,1.20869
 L 20.4465,1.17627 L 20.3737,1.13919 L 20.3034,1.09763 L 20.2359,1.05171 L 20.1713,1.00166 L 20.1101,0.947647
 L 20.0523,0.889908 L 19.9983,0.828644 L 19.9483,0.764114 L 19.9024,0.696564 L 19.8608,0.626266 L 19.8237,0.553513
 L 19.7913,0.478561 L 19.7636,0.401718 L 19.7408,0.323288 L 19.723,0.243591 L 19.7103,0.162918 L 19.7026,0.0816193
 L 19.7,-0 L 19.7026,-0.0816193 L 19.7103,-0.162918 L 19.723,-0.243591 L 19.7408,-0.323288 L 19.7636,-0.401718
 L 19.7913,-0.478561 L 19.8237,-0.553513 L 19.8608,-0.626266 L 19.9024,-0.696564 L 19.9483,-0.764114 L 19.9983,-0.828644
 L 20.0523,-0.889908 L 20.1101,-0.947647 L 20.1713,-1.00166 L 20.2359,-1.05171 L 20.3034,-1.09763 L 20.3737,-1.13919
 L 20.4465,-1.17627 L 20.5214,-1.20869 L 20.5983,-1.23636 L 20.6767,-1.25916 L 20.7564,-1.27696 L 20.8371,-1.28973
 L 20.9184,-1.29742 L 21,-1.29999 L 21.0816,-1.29742 L 21.1629,-1.28973 L 21.2436,-1.27696 L 21.3233,-1.25916
 L 21.4017,-1.23636 L 21.4786,-1.20869 L 21.5535,-1.17627 L 21.6263,-1.13919 L 21.6966,-1.09763 L 21.7641,-1.05171
 L 21.8286,-1.00166 L 21.8899,-0.947647 L 21.9476,-0.889908 L 22.0017,-0.828644 L 22.0517,-0.764114 L 22.0976,-0.696564
 L 22.1392,-0.626266 L 22.1763,-0.553513 L 22.2087,-0.478561 L 22.2364,-0.401718 L 22.2592,-0.323288 L 22.277,-0.243591
 L 22.2897,-0.162918 L 22.2974,-0.0816193 L 22.3,-0 L 22.2974,0.0816193 L 22.2897,0.162918 L 22.277,0.243591
 L 22.2592,0.323288 L 22.2364,0.401718 L 22.2087,0.478561 L 22.1763,0.553513 L 22.1392,0.626266 L 22.0976,0.696564
 L 22.0517,0.764114 L 22.0017,0.828644 L 21.9476,0.889908 L 21.8899,0.947647 L 21.8286,1.00166 L 21.7641,1.05171
 L 21.6966,1.09763 L 21.6263,1.13919 L 21.5535,1.17627 L 21.4786,1.20869 L 21.4017,1.23636 L 21.3233,1.25916
 L 21.2436,1.27696 L 21.1629,1.28973 L 21.0816,1.29742 L 21,1.29999 z
M -7.57854,-14.3783 L -7.62234,-14.2274 L -7.67555,-14.0797 L -7.73793,-13.9355 L -7.80922,-13.7956 L -7.88918,-13.6604
 L -7.97745,-13.5305 L -8.07372,-13.4064 L -8.17757,-13.2886 L -8.28862,-13.1776 L -8.40643,-13.0737 L -8.53053,-12.9774
 L -8.66043,-12.8892 L -8.79561,-12.8092 L -8.93555,-12.7379 L -9.07968,-12.6756 L -9.22745,-12.6223 L -9.37827,-12.5785
 L -9.53154,-12.5443 L -9.68666,-12.5197 L -9.84302,-12.5049 L -10,-12.5 L -10.157,-12.5049 L -10.3133,-12.5197
 L -10.4684,-12.5443 L -10.6217,-12.5785 L -10.7725,-12.6223 L -10.9203,-12.6756 L -11.0644,-12.7379 L -11.2044,-12.8092
 L -11.3396,-12.8892 L -11.4695,-12.9774 L -11.5936,-13.0737 L -11.7114,-13.1776 L -11.8224,-13.2886 L -11.9263,-13.4064
 L -12.0225,-13.5305 L -12.1108,-13.6604 L -12.1908,-13.7956 L -12.2621,-13.9355 L -12.3244,-14.0797 L -12.3776,-14.2274
 L -12.4214,-14.3783 L -12.4557,-14.5315 L -12.4803,-14.6867 L -12.4951,-14.843 L -12.5,-15 L -12.4951,-15.157
 L -12.4803,-15.3133 L -12.4557,-15.4684 L -12.4214,-15.6217 L -12.3776,-15.7725 L -12.3244,-15.9203 L -12.2621,-16.0644
 L -12.1908,-16.2044 L -12.1108,-16.3396 L -12.0225,-16.4695 L -11.9263,-16.5936 L -11.8224,-16.7114 L -11.7114,-16.8224
 L -11.5936,-16.9263 L -11.4695,-17.0225 L -11.3396,-17.1108 L -11.2044,-17.1908 L -11.0644,-17.2621 L -10.9203,-17.3244
 L -10.7725,-17.3776 L -10.6217,-17.4214 L -10.4684,-17.4557 L -10.3133,-17.4803 L -10.157,-17.4951 L -10,-17.5
 L -9.84302,-17.4951 L -9.68666,-17.4803 L -9.53154,-17.4557 L -9.37827,-17.4214 L -9.22745,-17.3776 L -9.07968,-17.3244
 L -8.93555,-17.2621 L -8.79561,-17.1908 L -8.66043,-17.1108 L -8.53053,-17.0225 L -8.40643,-16.9263 L -8.28862,-16.8224
 L -8.17757,-16.7114 L -8.07372,-16.5936 L -7.97745,-16.4695 L -7.88918,-16.3396 L -7.80922,-16.2044 L -7.73793,-16.0644
 L -7.67555,-15.9203 L -7.62234,-15.7725 L -7.57854,-15.6217 L -7.54428,-15.4684 L -7.5197,-15.3133 L -7.50493,-15.157
 L -7.5,-15 L -7.50493,-14.843 L -7.5197,-14.6867 L -7.54428,-14.5315 z
M -2.42145,-14.3783 L -2.4557,-14.5315 L -2.48029,-14.6867 L -2.49506,-14.843 L -2.5,-15 L -2.49506,-15.157
 L -2.48029,-15.3133 L -2.4557,-15.4684 L -2.42145,-15.6217 L -2.37764,-15.7725 L -2.32443,-15.9203 L -2.26205,-16.0644
 L -2.19077,-16.2044 L -2.11081,-16.3396 L -2.02254,-16.4695 L -1.92627,-16.5936 L -1.82242,-16.7114 L -1.71136,-16.8224
 L -1.59355,-16.9263 L -1.46945,-17.0225 L -1.33955,-17.1108 L -1.20438,-17.1908 L -1.06444,-17.2621 L -0.920303,-17.3244
 L -0.772537,-17.3776 L -0.621719,-17.4214 L -0.468445,-17.4557 L -0.313324,-17.4803 L -0.156967,-17.4951 L 0,-17.5
 L 0.156967,-17.4951 L 0.313324,-17.4803 L 0.468445,-17.4557 L 0.621719,-17.4214 L 0.772537,-17.3776 L 0.920303,-17.3244
 L 1.06444,-17.2621 L 1.20438,-17.1908 L 1.33955,-17.1108 L 1.46945,-17.0225 L 1.59355,-16.9263 L 1.71136,-16.8224
 L 1.82242,-16.7114 L 1.92627,-16.5936 L 2.02254,-16.4695 L 2.11081,-16.3396 L 2.19077,-16.2044 L 2.26205,-16.0644
 L 2.32443,-15.9203 L 2.37764,-15.7725 L 2.42145,-15.6217 L 2.4557,-15.4684 L 2.48029,-15.3133 L 2.49506,-15.157
 L 2.5,-15 L 2.49506,-14.843 L 2.48029,-14.6867 L 2.4557,-14.5315 L 2.42145,-14.3783 L 2.37764,-14.2274
 L 2.32443,-14.0797 L 2.26205,-13.9355 L 2.19077,-13.7956 L 2.11081,-13.6604 L 2.02254,-13.5305 L 1.92627,-13.4064
 L 1.82242,-13.2886 L 1.71136,-13.1776 L 1.59355,-13.0737 L 1.46945,-12.9774 L 1.33955,-12.8892 L 1.20438,-12.8092
 L 1.06444,-12.7379 L 0.920303,-12.6756 L 0.772537,-12.6223 L 0.621719,-12.5785 L 0.468445,-12.5443 L 0.313324,-12.5197
 L 0.156967,-12.5049 L 0,-12.5 L -0.156967,-12.5049 L -0.313324,-12.5197 L -0.468445,-12.5443 L -0.621719,-12.5785
 L -0.772537,-12.6223 L -0.920303,-12.6756 L -1.06444,-12.7379 L -1.20438,-12.8092 L -1.33955,-12.8892 L -1.46945,-12.9774
 L -1.59355,-13.0737 L -1.71136,-13.1776 L -1.82242,-13.2886 L -1.92627,-13.4064 L -2.02254,-13.5305 L -2.11081,-13.6604
 L -2.19077,-13.7956 L -2.26205,-13.9355 L -2.32443,-14.0797 L -2.37764,-14.2274 z
" stroke="black" fill="lightgray" stroke-width="0.5"/>
</svg>
